<svg id="Layer_1" data-name="Layer 1" xmlns="http://www.w3.org/2000/svg" viewBox="0 0 132.24 72"><defs><style>.cls-1{fill:#fff;}.cls-2{fill:#262324;}.cls-3{fill:#fdfdfd;}.cls-4{fill:#48484a;}.cls-5{fill:#e8e9ea;}.cls-6{fill:#a1263b;}.cls-7{fill:#97002e;}.cls-8{fill:#272424;}.cls-9{fill:#272324;}.cls-10{fill:#282526;}.cls-11{fill:#94002b;}.cls-12{fill:#323031;}.cls-13{fill:#95072c;}.cls-14{fill:#95002c;}.cls-15{fill:#910028;}.cls-16{fill:#fefefe;}.cls-17{fill:#96002c;}.cls-18{fill:#95012c;}.cls-19{fill:#93002a;}.cls-20{fill:#8f0025;}.cls-21{fill:#920029;}.cls-22{fill:#fcfcfc;}.cls-23{fill:#fbfcfc;}</style></defs><title>Optima logo</title><path class="cls-1" d="M461.36,328.8V335a.34.34,0,0,0-.1,0,3.38,3.38,0,0,0-3.84-3,3.39,3.39,0,0,0-.27,6.74,22.06,22.06,0,0,0,2.3,0,1.41,1.41,0,0,1-1.16,1.74,1.87,1.87,0,0,1-2.24-1.35h-1.49a2.88,2.88,0,0,0,2.21,2.72,3.32,3.32,0,0,1,.51.23h-45a3.71,3.71,0,0,1,.46-.19,3,3,0,0,0,2.45-3.15c0-1.15,0-2.31,0-3.47a3,3,0,0,0-2-3,3.56,3.56,0,0,0-3.92.59,3.43,3.43,0,0,0-.82,3.79,3.26,3.26,0,0,0,3.16,2.13h1.83a1.5,1.5,0,0,1-1.28,1.7,1.82,1.82,0,0,1-2.19-1.35h-1.48a2.89,2.89,0,0,0,2.23,2.71,5.83,5.83,0,0,1,.58.23h-82.2v-72H362l-1.48.22-.8,0c-.65.1-1.31.22-2,.3s-1.36.09-2,.23c-1.13.24-2.25.52-3.35.86a31.37,31.37,0,0,0-8.75,4.29c-.74.51-1.42,1.1-2.11,1.68-.92.79-1.85,1.57-2.73,2.4a23.58,23.58,0,0,0-1.7,1.89c-.44.5-.84,1-1.32,1.66h11.33a12.45,12.45,0,0,1,6.49,1.53c1,.61,2.14,1.12,3.22,1.67q7,3.53,13.94,7a62.82,62.82,0,0,0,5.86,2.8,33.85,33.85,0,0,0,13.4,2.32c.28,0,.57-.08.86-.07l4,.2a31.88,31.88,0,0,0-9-18.8,43.55,43.55,0,0,0-4.17-3.76,30.2,30.2,0,0,0-10.08-5,27.72,27.72,0,0,0-7.51-1.25l-1.59-.22h98.88V318a4.83,4.83,0,0,1-.22-.64,8.74,8.74,0,0,0-2.26-4.27,9.53,9.53,0,0,0-6.41-2.84c-5.4-.39-9.92,2.67-10.49,8.16a9,9,0,0,0,3.37,8.39c2.52,2,5.45,2.31,8.51,1.81.87-.15,1.7-.44,2.57-.68v.83a1.08,1.08,0,0,0,.19.05l4.62,0Zm-66.24-22.43v-1.84l-.11-1.76h-1.92c-1.45,0-2.9,0-4.36,0-.86,0-1.72.13-2.59.15-.72,0-1.45,0-2.17-.07l-2,0-.72,0a58.25,58.25,0,0,1-8.66-.24,15.12,15.12,0,0,1-3.08-.69c-2.13-.83-4.21-1.81-6.3-2.75-2.43-1.08-4.86-2.17-7.28-3.29a17.91,17.91,0,0,0-6.82-1.56c-1.32-.06-2.64,0-3.95,0h-14c-.38,0-.62.12-.68.5-.33,2-.79,3.94-.94,5.94a45.33,45.33,0,0,0,.09,5.94,27.46,27.46,0,0,0,1.56,7.15,32.56,32.56,0,0,0,7.5,12.19c.69.7,1.45,1.33,2.2,2s1.64,1.43,2.53,2.05A32.2,32.2,0,0,0,362.16,336c1.55,0,3.1-.23,4.64-.35a1.85,1.85,0,0,0,.23-.6c0-5.19,0-10.37,0-15.56,0-.54,0-1.07,0-1.61a10.23,10.23,0,0,1,1.59-4,7.92,7.92,0,0,1,1.33-1.6,10.83,10.83,0,0,1,8-2.34,9.15,9.15,0,0,1,5.3,2.08,9.28,9.28,0,0,1,3.23,7.43,10.33,10.33,0,0,1-1.94,5.94,7.36,7.36,0,0,1-2.68,2.28,10.21,10.21,0,0,1-4.54,1.23l-5.28,0c0,.08-.1.16-.1.25,0,1.67,0,3.34,0,5a1.57,1.57,0,0,0,.06.28l.18-.15a4.7,4.7,0,0,0,.75-.13,30.88,30.88,0,0,0,7.28-3.55,34.51,34.51,0,0,0,5.18-4.32,31.68,31.68,0,0,0,4.6-5.6.92.92,0,0,1,.25-.23,8.06,8.06,0,0,0,8.79,8.23v-4.22c-2.21-.19-3.63-1.23-3.77-3.16-.17-2.26,0-4.53,0-6.86h5.38v-4.18a1.9,1.9,0,0,0-.46-.1h-5.05Zm29.82,6a9.56,9.56,0,0,0-8.77-2.33,7.83,7.83,0,0,0-6.54,7.5c-.13,3.68,0,7.36-.05,11a1.54,1.54,0,0,0,.05.17h4.78v-.61c0-2.08,0-4.16,0-6.24,0-1.42,0-2.84,0-4.26a3.77,3.77,0,0,1,2.85-3.63,4.06,4.06,0,0,1,4.51,1.93,5.41,5.41,0,0,1,.62,2.76q0,4.71,0,9.42v.64h4.84v-.61c0-3.18,0-6.36,0-9.53a7.18,7.18,0,0,1,.35-2.11,3.88,3.88,0,0,1,4-2.6,3.58,3.58,0,0,1,3.42,2.9,8,8,0,0,1,.22,1.89c0,3.14,0,6.28,0,9.42v.63h4.82v-.32q0-5.25,0-10.5a7.07,7.07,0,0,0-.07-1.13,8.09,8.09,0,0,0-8.09-7A9.3,9.3,0,0,0,424.94,312.4Zm-22.51-2.17v18.54h4.78V310.23Zm-30.56,14.18h4.48a7.63,7.63,0,0,0,.95,0,4.57,4.57,0,0,0,3.05-1.53,5.39,5.39,0,0,0,1.21-4.31,4.47,4.47,0,0,0-3.1-3.81,6.67,6.67,0,0,0-2.67-.13,4.1,4.1,0,0,0-3.68,3.56C371.88,320.19,371.94,322.28,371.87,324.41ZM440.06,336a3.43,3.43,0,0,0-2.43-3.83,3.63,3.63,0,0,0-4.28,1.87,3.36,3.36,0,0,0,1.14,4.24,4,4,0,0,0,4.82-.23l-1-1.17c-1.35,1.09-3.19.63-3.49-.88Zm-9.13.91c-1.6,1-3.24.6-3.53-.92h5.25c.1-2.06-.86-3.46-2.62-3.85a3.61,3.61,0,0,0-4.16,2,3.39,3.39,0,0,0,1.36,4.23,3.89,3.89,0,0,0,4.64-.35Zm-31.88,0c-1.49,1.05-3.22.62-3.53-.92h5.25c.06-2-.77-3.3-2.33-3.78a3.7,3.7,0,0,0-4.2,1.49,3.38,3.38,0,0,0,.43,4.14,4.05,4.05,0,0,0,5.37.26Zm50.1,1.93c0-.18,0-.33,0-.49,0-1.09,0-2.19,0-3.29a1.42,1.42,0,1,1,2.83,0c0,.68,0,1.36,0,2v1.76h1.76v-3.43a6.52,6.52,0,0,0,0-.77,3.22,3.22,0,0,0-6.26-.2,9.26,9.26,0,0,0-.07,1.67v2.74Zm-28.55,0c0-.56,0-1.1,0-1.63,0-.8,0-1.6,0-2.39a1.34,1.34,0,0,1,1.44-1.29,1.38,1.38,0,0,1,1.35,1.46c0,1.07,0,2.15,0,3.23v.6h1.76c0-1.32,0-2.6,0-3.88a3.19,3.19,0,0,0-6.24-.56,39,39,0,0,0,0,4.46Zm-17.49,0c0-.19,0-.38,0-.57,0-1.09,0-2.19,0-3.29a1.39,1.39,0,0,1,.89-1.37,1.43,1.43,0,0,1,1.95,1.48c0,1.23,0,2.47,0,3.73h1.68a1.3,1.3,0,0,0,.05-.14c0-1.2,0-2.4,0-3.6a3.18,3.18,0,0,0-6.35,0c0,1.1,0,2.2,0,3.3a3.8,3.8,0,0,0,.05.46Zm1.76-30.33a2.47,2.47,0,0,0,2.47-2.4,2.44,2.44,0,1,0-4.88,0A2.46,2.46,0,0,0,404.87,308.5Zm39,23.68a2.94,2.94,0,0,0-3.14,3.14v3.48h1.72c0-1.06,0-2.1,0-3.13a2.75,2.75,0,0,1,.3-1.36c.21-.34.7-.49,1.11-.75Zm-27.66,6.63h1.7V332.2h-1.7Zm28.59-6.62v6.61h1.68v-6.61Zm-27.7-2.37a.84.84,0,0,0-.86.86.86.86,0,0,0,.85.88.89.89,0,0,0,.87-.87A.88.88,0,0,0,417.06,329.82Zm29.43.85a.86.86,0,1,0-1.72.06.86.86,0,0,0,1.72-.06Z" transform="translate(-329.12 -270.12)"/><path class="cls-2" d="M461.24,328.79l-4.62,0a1.08,1.08,0,0,1-.19-.05v-.83c-.87.24-1.7.53-2.57.68-3.06.5-6,.2-8.51-1.81a9,9,0,0,1-3.37-8.39c.57-5.49,5.09-8.55,10.49-8.16a9.53,9.53,0,0,1,6.41,2.84,8.74,8.74,0,0,1,2.26,4.27,4.83,4.83,0,0,0,.22.64v.72a3.26,3.26,0,0,0-.11.61Q461.24,324.07,461.24,328.79Zm-4.81-4.66c0-1.66,0-3.36,0-5.05a3.8,3.8,0,0,0-.18-1.06c-.63-2.12-2.4-3.28-4.87-3.24a4.36,4.36,0,0,0-4.52,4.1c-.23,2.83,1.13,4.9,3.74,5.21A51.6,51.6,0,0,0,456.43,324.13Z" transform="translate(-329.12 -270.12)"/><path class="cls-2" d="M457.28,342.12a3.32,3.32,0,0,0-.51-.23,2.88,2.88,0,0,1-2.21-2.72h1.49a1.87,1.87,0,0,0,2.24,1.35,1.41,1.41,0,0,0,1.16-1.74,22.06,22.06,0,0,1-2.3,0,3.39,3.39,0,0,1,.27-6.74,3.38,3.38,0,0,1,3.84,3c0,1.44,0,2.88,0,4.32a3.16,3.16,0,0,1-2.55,2.6c-.15,0-.31.11-.46.16Zm2.17-4.94c0-.74.05-1.46,0-2.17a1.69,1.69,0,0,0-.48-.91,1.91,1.91,0,0,0-2.12-.23,1.83,1.83,0,0,0-.75,2,1.63,1.63,0,0,0,1.45,1.31C458.16,337.22,458.8,337.18,459.45,337.18Z" transform="translate(-329.12 -270.12)"/><path class="cls-2" d="M411.32,342.12a5.83,5.83,0,0,0-.58-.23,2.89,2.89,0,0,1-2.23-2.71H410a1.82,1.82,0,0,0,2.19,1.35,1.5,1.5,0,0,0,1.28-1.7h-1.83a3.26,3.26,0,0,1-3.16-2.13,3.43,3.43,0,0,1,.82-3.79,3.56,3.56,0,0,1,3.92-.59,3,3,0,0,1,2,3c0,1.16,0,2.32,0,3.47a3,3,0,0,1-2.45,3.15,3.71,3.71,0,0,0-.46.19Zm2.13-4.93c0-.68,0-1.28,0-1.88a1.63,1.63,0,0,0-1.79-1.66,1.61,1.61,0,0,0-1.65,1.56,1.69,1.69,0,0,0,1.55,2C412.16,337.23,412.78,337.19,413.45,337.19Z" transform="translate(-329.12 -270.12)"/><path class="cls-3" d="M458.24,342.12c.15-.05.31-.12.46-.16a3.16,3.16,0,0,0,2.55-2.6h.11v2.76Z" transform="translate(-329.12 -270.12)"/><path class="cls-4" d="M461.24,328.79q0-4.73,0-9.46a3.26,3.26,0,0,1,.11-.61V328.8Z" transform="translate(-329.12 -270.12)"/><path class="cls-5" d="M461.36,339.36h-.11c0-1.44,0-2.88,0-4.32a.34.34,0,0,1,.1,0Z" transform="translate(-329.12 -270.12)"/><path class="cls-6" d="M360.52,270.34l1.48-.22h.48l1.59.22-1.11,0Z" transform="translate(-329.12 -270.12)"/><path class="cls-7" d="M366.8,335.65c-1.54.12-3.09.35-4.64.35a32.2,32.2,0,0,1-18.77-5.95c-.89-.62-1.7-1.35-2.53-2.05s-1.51-1.27-2.2-2a32.56,32.56,0,0,1-7.5-12.19,27.46,27.46,0,0,1-1.56-7.15,45.33,45.33,0,0,1-.09-5.94c.15-2,.61-4,.94-5.94.06-.38.3-.5.68-.5h14c1.31,0,2.63,0,3.95,0a17.91,17.91,0,0,1,6.82,1.56c2.42,1.12,4.85,2.21,7.28,3.29,2.09.94,4.17,1.92,6.3,2.75a15.12,15.12,0,0,0,3.08.69,58.25,58.25,0,0,0,8.66.24l.72,0c.06.07.11.21.17.21.55,0,1.1,0,1.66,0,.07,0,.14-.15.21-.23.72,0,1.45.09,2.17.07.87,0,1.73-.14,2.59-.15,1.46,0,2.91,0,4.36,0a3,3,0,0,0,.64.21,10.44,10.44,0,0,0,1.12,0l.07,1H395v-1.18l.11,1.76c-.63,0-1.27-.07-1.9-.08-1,0-2,0-3,0V310c-1.24,0-2.48,0-3.72,0-.12,0-.46-.19-.36.23,0,.25,0,.51-.05.77l-.06,3.21v-3.84a30.59,30.59,0,0,0-.12,3.58c0,.09.08.17.13.26a.07.07,0,0,1,0,.1c-.14.44.2.35.41.36h3.8c0,1.29,0,2.58,0,3.87,0,.59,0,1.17.05,1.76l0,.24a.92.92,0,0,0-.25.23,31.68,31.68,0,0,1-4.6,5.6,34.51,34.51,0,0,1-5.18,4.32,30.88,30.88,0,0,1-7.28,3.55,4.7,4.7,0,0,1-.75.13c0-1.57,0-3.13,0-4.7a4.13,4.13,0,0,0-.11-.69l5.28,0a10.21,10.21,0,0,0,4.54-1.23,7.36,7.36,0,0,0,2.68-2.28,10.33,10.33,0,0,0,1.94-5.94,9.28,9.28,0,0,0-3.23-7.43A9.15,9.15,0,0,0,378,310a10.83,10.83,0,0,0-8,2.34,7.92,7.92,0,0,0-1.33,1.6,10.23,10.23,0,0,0-1.59,4,5.32,5.32,0,0,0-.22,1Q366.8,327.29,366.8,335.65Zm-10.13-25.79.39-.06c-1-.08-2-.09-3.05-.07-.14,0-.27.14-.41.22a13.48,13.48,0,0,0-4.91,2.07,9.17,9.17,0,0,0-3.43,4.92,8.75,8.75,0,0,0-.18,4.38,10,10,0,0,0,2.37,4.67,10.11,10.11,0,0,0,2.66,1.88,11,11,0,0,0,4.95,1.38,8.41,8.41,0,0,0,3.43-.43,10.64,10.64,0,0,0,5.62-3.79,9.09,9.09,0,0,0,.87-9.56,9.26,9.26,0,0,0-4.19-4.31A13.93,13.93,0,0,0,356.67,309.86Zm38.09-5.57v-.05h-4.41v.05Z" transform="translate(-329.12 -270.12)"/><path class="cls-7" d="M363,270.36l1.11,0a27.72,27.72,0,0,1,7.51,1.25,30.2,30.2,0,0,1,10.08,5,43.55,43.55,0,0,1,4.17,3.76,31.88,31.88,0,0,1,9,18.8l-4-.2c-.29,0-.58.06-.86.07a33.85,33.85,0,0,1-13.4-2.32,62.82,62.82,0,0,1-5.86-2.8q-7-3.49-13.94-7c-1.08-.55-2.18-1.06-3.22-1.67a12.45,12.45,0,0,0-6.49-1.53H335.78c.48-.62.88-1.16,1.32-1.66a23.58,23.58,0,0,1,1.7-1.89c.88-.83,1.81-1.61,2.73-2.4.69-.58,1.37-1.17,2.11-1.68a31.37,31.37,0,0,1,8.75-4.29c1.1-.34,2.22-.62,3.35-.86.66-.14,1.35-.14,2-.23s1.31-.2,2-.3,1.36.09,2,.09A9.73,9.73,0,0,0,363,270.36Z" transform="translate(-329.12 -270.12)"/><path class="cls-2" d="M424.94,312.4a9.3,9.3,0,0,1,7-2.55,8.09,8.09,0,0,1,8.09,7,7.07,7.07,0,0,1,.07,1.13q0,5.25,0,10.5v.32h-4.82v-.63c0-3.14,0-6.28,0-9.42a8,8,0,0,0-.22-1.89,3.58,3.58,0,0,0-3.42-2.9,3.88,3.88,0,0,0-4,2.6,7.18,7.18,0,0,0-.35,2.11c0,3.17,0,6.35,0,9.53v.61h-4.84v-.64q0-4.71,0-9.42a5.41,5.41,0,0,0-.62-2.76,4.06,4.06,0,0,0-4.51-1.93,3.77,3.77,0,0,0-2.85,3.63c-.08,1.42,0,2.84,0,4.26,0,2.08,0,4.16,0,6.24v.61h-4.78a1.54,1.54,0,0,1-.05-.17c0-3.68-.08-7.36.05-11a7.83,7.83,0,0,1,6.54-7.5A9.56,9.56,0,0,1,424.94,312.4Z" transform="translate(-329.12 -270.12)"/><path class="cls-2" d="M390.27,320.51l0-.24a32.37,32.37,0,0,0,4.6-13.19c0,.87.09,1.74.08,2.61,0,.48.12.65.63.64,1.68,0,3.35,0,5,0v4.18h-5.38c0,2.33-.13,4.6,0,6.86.14,1.93,1.56,3,3.77,3.16v4.22A8.06,8.06,0,0,1,390.27,320.51Z" transform="translate(-329.12 -270.12)"/><path class="cls-2" d="M402.43,310.23h4.78v18.54h-4.78Z" transform="translate(-329.12 -270.12)"/><path class="cls-7" d="M371.87,324.41c.07-2.13,0-4.22.24-6.27a4.1,4.1,0,0,1,3.68-3.56,6.67,6.67,0,0,1,2.67.13,4.47,4.47,0,0,1,3.1,3.81,5.39,5.39,0,0,1-1.21,4.31,4.57,4.57,0,0,1-3.05,1.53,7.63,7.63,0,0,1-.95,0Z" transform="translate(-329.12 -270.12)"/><path class="cls-1" d="M394.9,307.08a32.37,32.37,0,0,1-4.6,13.19c0-.59-.05-1.17-.05-1.76,0-1.29,0-2.58,0-3.87a3.3,3.3,0,0,0-.52-.13c-1.05,0-2.1,0-3.16,0a1.81,1.81,0,0,1-.53-.22.07.07,0,0,0,0-.1h0l.06-3.21c0-.26,0-.52.05-.77,1.25,0,2.5,0,3.75,0,.11,0,.22-.16.33-.25v-5.52c1,0,2,0,3,0,.63,0,1.27.05,1.9.08v1.84Z" transform="translate(-329.12 -270.12)"/><path class="cls-2" d="M440.06,336h-5.24c.3,1.51,2.14,2,3.49.88l1,1.17a4,4,0,0,1-4.82.23,3.36,3.36,0,0,1-1.14-4.24,3.63,3.63,0,0,1,4.28-1.87A3.43,3.43,0,0,1,440.06,336Zm-1.81-1.44a1.77,1.77,0,0,0-1.67-1,1.84,1.84,0,0,0-1.66,1Z" transform="translate(-329.12 -270.12)"/><path class="cls-2" d="M430.93,336.9l.94,1.12a3.89,3.89,0,0,1-4.64.35,3.39,3.39,0,0,1-1.36-4.23,3.61,3.61,0,0,1,4.16-2c1.76.39,2.72,1.79,2.62,3.85H427.4C427.69,337.5,429.33,337.91,430.93,336.9Zm-.1-2.35a1.83,1.83,0,0,0-3.31,0Z" transform="translate(-329.12 -270.12)"/><path class="cls-2" d="M399.05,336.89l1,1.19a4.05,4.05,0,0,1-5.37-.26,3.38,3.38,0,0,1-.43-4.14,3.7,3.7,0,0,1,4.2-1.49c1.56.48,2.39,1.8,2.33,3.78h-5.25C395.83,337.51,397.56,337.94,399.05,336.89Zm-3.41-2.37h3.3a1.76,1.76,0,0,0-1.63-1A1.88,1.88,0,0,0,395.64,334.52Z" transform="translate(-329.12 -270.12)"/><path class="cls-8" d="M449.15,338.82h-1.72v-2.74a9.26,9.26,0,0,1,.07-1.67,3.22,3.22,0,0,1,6.26.2,6.52,6.52,0,0,1,0,.77v3.43H452v-1.76c0-.68,0-1.36,0-2a1.42,1.42,0,1,0-2.83,0c0,1.1,0,2.2,0,3.29C449.18,338.49,449.16,338.64,449.15,338.82Z" transform="translate(-329.12 -270.12)"/><path class="cls-9" d="M420.6,338.81h-1.68a39,39,0,0,1,0-4.46,3.19,3.19,0,0,1,6.24.56c.05,1.28,0,2.56,0,3.88h-1.76v-.6c0-1.08,0-2.16,0-3.23a1.38,1.38,0,0,0-1.35-1.46,1.34,1.34,0,0,0-1.44,1.29c-.08.79,0,1.59,0,2.39C420.59,337.71,420.6,338.25,420.6,338.81Z" transform="translate(-329.12 -270.12)"/><path class="cls-9" d="M403.11,338.83h-1.68a3.8,3.8,0,0,1-.05-.46c0-1.1,0-2.2,0-3.3a3.18,3.18,0,0,1,6.35,0c0,1.2,0,2.4,0,3.6a1.3,1.3,0,0,1-.05.14H406c0-1.26,0-2.5,0-3.73A1.43,1.43,0,0,0,404,333.6a1.39,1.39,0,0,0-.89,1.37c0,1.1,0,2.2,0,3.29C403.14,338.45,403.12,338.64,403.11,338.83Z" transform="translate(-329.12 -270.12)"/><path class="cls-9" d="M404.87,308.5a2.46,2.46,0,0,1-2.41-2.4,2.44,2.44,0,1,1,4.88,0A2.47,2.47,0,0,1,404.87,308.5Z" transform="translate(-329.12 -270.12)"/><path class="cls-9" d="M443.83,332.18v1.38c-.41.26-.9.41-1.11.75a2.75,2.75,0,0,0-.3,1.36c0,1,0,2.07,0,3.13h-1.72v-3.48A2.94,2.94,0,0,1,443.83,332.18Z" transform="translate(-329.12 -270.12)"/><path class="cls-10" d="M416.17,338.81V332.2h1.7v6.61Z" transform="translate(-329.12 -270.12)"/><path class="cls-10" d="M444.76,332.19h1.68v6.61h-1.68Z" transform="translate(-329.12 -270.12)"/><path class="cls-11" d="M366.8,335.65q0-8.37,0-16.75a5.32,5.32,0,0,1,.22-1c0,.54,0,1.07,0,1.61,0,5.19,0,10.37,0,15.56A1.85,1.85,0,0,1,366.8,335.65Z" transform="translate(-329.12 -270.12)"/><path class="cls-10" d="M417.06,329.82a.88.88,0,0,1,.86.87.89.89,0,0,1-.87.87.86.86,0,0,1-.85-.88A.84.84,0,0,1,417.06,329.82Z" transform="translate(-329.12 -270.12)"/><path class="cls-10" d="M446.49,330.67a.86.86,0,0,1-1.72.06.86.86,0,1,1,1.72-.06Z" transform="translate(-329.12 -270.12)"/><path class="cls-11" d="M372.08,329a4.13,4.13,0,0,1,.11.69c0,1.57,0,3.13,0,4.7l-.18.15a1.57,1.57,0,0,1-.06-.28c0-1.67,0-3.34,0-5C372,329.11,372.05,329,372.08,329Z" transform="translate(-329.12 -270.12)"/><path class="cls-12" d="M394.9,307.08l.22-.71v3.84h5.05a1.9,1.9,0,0,1,.46.1c-1.67,0-3.34,0-5,0-.51,0-.63-.16-.63-.64C395,308.82,394.93,308,394.9,307.08Z" transform="translate(-329.12 -270.12)"/><path class="cls-13" d="M395,302.77V304h-.09l-.07-1a10.44,10.44,0,0,1-1.12,0,3,3,0,0,1-.64-.21Z" transform="translate(-329.12 -270.12)"/><path class="cls-14" d="M384,302.87c-.07.08-.14.23-.21.23-.56,0-1.11,0-1.66,0-.06,0-.11-.14-.17-.21Z" transform="translate(-329.12 -270.12)"/><path class="cls-15" d="M363,270.36a9.73,9.73,0,0,1-1.2.11c-.68,0-1.36-.06-2-.09l.8,0Z" transform="translate(-329.12 -270.12)"/><path class="cls-1" d="M456.43,324.13a51.6,51.6,0,0,1-5.84,0c-2.61-.31-4-2.38-3.74-5.21a4.36,4.36,0,0,1,4.52-4.1c2.47,0,4.24,1.12,4.87,3.24a3.8,3.8,0,0,1,.18,1.06C456.44,320.77,456.43,322.47,456.43,324.13Z" transform="translate(-329.12 -270.12)"/><path class="cls-1" d="M459.45,337.18c-.65,0-1.29,0-1.92,0a1.63,1.63,0,0,1-1.45-1.31,1.83,1.83,0,0,1,.75-2,1.91,1.91,0,0,1,2.12.23,1.69,1.69,0,0,1,.48.91C459.5,335.72,459.45,336.44,459.45,337.18Z" transform="translate(-329.12 -270.12)"/><path class="cls-16" d="M413.45,337.19c-.67,0-1.29,0-1.9,0a1.69,1.69,0,0,1-1.55-2,1.61,1.61,0,0,1,1.65-1.56,1.63,1.63,0,0,1,1.79,1.66C413.47,335.91,413.45,336.51,413.45,337.19Z" transform="translate(-329.12 -270.12)"/><path class="cls-1" d="M356.67,309.86a13.93,13.93,0,0,1,4.12,1.3,9.26,9.26,0,0,1,4.19,4.31,9.09,9.09,0,0,1-.87,9.56,10.64,10.64,0,0,1-5.62,3.79,8.41,8.41,0,0,1-3.43.43,11,11,0,0,1-4.95-1.38,10.11,10.11,0,0,1-2.66-1.88,10,10,0,0,1-2.37-4.67,8.75,8.75,0,0,1,.18-4.38,9.17,9.17,0,0,1,3.43-4.92A13.48,13.48,0,0,1,353.6,310Zm4.61,9.68c.07-2.83-2.74-5.61-5.83-5.62a5.94,5.94,0,0,0-5.85,5.58,5.83,5.83,0,0,0,6,5.59C358.43,325.09,361.36,322.32,361.28,319.54Z" transform="translate(-329.12 -270.12)"/><path class="cls-17" d="M390.2,310c-.11.09-.22.25-.33.25-1.25,0-2.5,0-3.75,0-.1-.42.24-.23.36-.23C387.72,310,389,310,390.2,310Z" transform="translate(-329.12 -270.12)"/><path class="cls-18" d="M356.67,309.86l-3.07.09c.14-.08.27-.22.41-.22,1,0,2,0,3.05.07Z" transform="translate(-329.12 -270.12)"/><ellipse class="cls-19" cx="63.43" cy="34.14" rx="3.12" ry="0.04"/><path class="cls-20" d="M386,314.28a1.81,1.81,0,0,0,.53.22c1.06,0,2.11,0,3.16,0a3.3,3.3,0,0,1,.52.13h-3.8C386.2,314.63,385.86,314.72,386,314.28Z" transform="translate(-329.12 -270.12)"/><path class="cls-21" d="M386,314.18c0-.09-.13-.17-.13-.26a30.59,30.59,0,0,1,.12-3.58v3.84Z" transform="translate(-329.12 -270.12)"/><path class="cls-22" d="M438.25,334.55h-3.33a1.84,1.84,0,0,1,1.66-1A1.77,1.77,0,0,1,438.25,334.55Z" transform="translate(-329.12 -270.12)"/><path class="cls-22" d="M430.83,334.55h-3.31a1.83,1.83,0,0,1,3.31,0Z" transform="translate(-329.12 -270.12)"/><path class="cls-23" d="M395.64,334.52a1.88,1.88,0,0,1,1.67-1,1.76,1.76,0,0,1,1.63,1Z" transform="translate(-329.12 -270.12)"/><path class="cls-7" d="M361.28,319.54c.08,2.78-2.85,5.55-5.64,5.55a5.83,5.83,0,0,1-6-5.59,5.94,5.94,0,0,1,5.85-5.58C358.54,313.93,361.35,316.71,361.28,319.54Z" transform="translate(-329.12 -270.12)"/></svg>